<svg xmlns="http://www.w3.org/2000/svg" viewBox="0 0 88.34 87.43"><defs><linearGradient id="linear-gradient" x1="1395.9" y1="1386.22" x2="1436.54" y2="1386.22" gradientTransform="rotate(-90 59.43 1401.22)" gradientUnits="userSpaceOnUse"><stop offset="0" stop-opacity="0"/><stop offset="1"/></linearGradient><style>.cls-1{opacity:.2}.cls-2{fill:#f90006}.cls-10{opacity:0}.cls-13{opacity:.3}.cls-10,.cls-11,.cls-12,.cls-13,.cls-14,.cls-15,.cls-16{fill:none;stroke:#fff;stroke-miterlimit:10}.cls-10{stroke-linecap:round;stroke-width:7px}.cls-11{stroke-width:6px;opacity:.1}.cls-12{stroke-width:5px;opacity:.2}.cls-13{stroke-width:4px}.cls-14{stroke-width:3px;opacity:.4}.cls-15{stroke-width:2px;opacity:.5}.cls-16{opacity:.6}</style></defs><g id="Layer_2" data-name="Layer 2"><g id="Layer_1-2" data-name="Layer 1"><circle class="cls-1" cx="53.03" cy="43.98" r="35.31"/><circle class="cls-2" cx="44.43" cy="44.43" r="43"/><circle cx="45.32" cy="48.05" r="37.63" transform="rotate(-5.62 45.327 48.074)" style="opacity:.05"/><circle cx="44.86" cy="47.43" r="36.71" transform="rotate(-5.62 44.848 47.438)" style="opacity:.1"/><circle cx="44.4" cy="46.81" r="35.78" transform="rotate(-5.62 44.369 46.801)" style="opacity:.15"/><circle cx="43.94" cy="46.2" r="34.86" transform="rotate(-5.62 43.991 46.17)" style="opacity:.2"/><circle cx="43.48" cy="45.58" r="33.93" transform="rotate(-5.62 43.512 45.534)" style="opacity:.25"/><circle cx="43.02" cy="44.96" r="33" transform="rotate(-5.62 43.028 45)" style="opacity:.3"/><circle class="cls-1" cx="44.43" cy="44.43" r="33.08"/><circle class="cls-2" cx="44.43" cy="44.43" r="31.94"/><path class="cls-11" d="M4.4 41.05A38.46 38.46 0 0 1 41.61 4.11"/><path class="cls-12" d="M5.29 37.67A36.22 36.22 0 0 1 38.78 4.72"/><path class="cls-13" d="M6.19 34.29A34.37 34.37 0 0 1 36 5.33"/><path class="cls-14" d="M7.08 30.91a33.28 33.28 0 0 1 26-25"/><path class="cls-15" d="M8 27.53a34 34 0 0 1 22.32-21"/><path class="cls-16" d="M8.87 24.15a41.1 41.1 0 0 1 18.6-17"/><path class="cls-11" d="M16.33 42.06a27 27 0 0 1 26.12-25.93"/><path class="cls-12" d="M17 39.69a25.42 25.42 0 0 1 23.46-23.13"/><path class="cls-13" d="M17.58 37.31A24.13 24.13 0 0 1 38.48 17"/><path class="cls-14" d="M18.21 34.94a23.36 23.36 0 0 1 18.28-17.53"/><path class="cls-15" d="M18.84 32.57a23.87 23.87 0 0 1 15.67-14.73"/><path class="cls-16" d="M19.47 30.19a28.86 28.86 0 0 1 13.06-11.92"/><path class="cls-11" d="M68.9 46.5a23.5 23.5 0 0 1-22.74 22.57"/><path class="cls-12" d="M68.35 48.56A22.13 22.13 0 0 1 47.89 68.7"/><path class="cls-13" d="M67.81 50.63a21 21 0 0 1-18.19 17.7"/><path class="cls-14" d="M67.26 52.7A20.34 20.34 0 0 1 51.34 68"/><path class="cls-15" d="M66.71 54.76a20.78 20.78 0 0 1-13.64 12.82"/><path class="cls-16" d="M66.16 56.83A25.12 25.12 0 0 1 54.8 67.21"/><circle cx="44.43" cy="44.43" r="20.32" transform="rotate(-45 44.432 44.426)" style="fill:url(#linear-gradient);opacity:.15"/></g></g></svg>